<?xml version="1.0" encoding="UTF-8" standalone="no"?><!DOCTYPE svg PUBLIC "-//W3C//DTD SVG 1.1//EN" "http://www.w3.org/Graphics/SVG/1.1/DTD/svg11.dtd"><svg width="100%" height="100%" viewBox="0 0 48 48" version="1.1" xmlns="http://www.w3.org/2000/svg" xmlns:xlink="http://www.w3.org/1999/xlink" xml:space="preserve" xmlns:serif="http://www.serif.com/" style="fill-rule:evenodd;clip-rule:evenodd;stroke-linejoin:round;stroke-miterlimit:2;"><path d="M24,0L44.785,12L44.785,36L24,48L3.215,36L3.215,12L24,0Z" style="fill:rgb(0,113,144);"/><clipPath id="_clip1"><rect x="13" y="5.5" width="22.163" height="25"/></clipPath><g clip-path="url(#_clip1)"><g><path d="M16.185,14.652C16.131,14.599 16.123,14.57 16.123,14.437C16.123,14.314 16.133,14.275 16.171,14.24C16.212,14.202 16.232,14.2 16.309,14.223C16.413,14.254 16.688,14.466 16.688,14.515C16.688,14.555 16.441,14.683 16.329,14.701C16.262,14.712 16.235,14.703 16.185,14.652Z" style="fill:rgb(255,239,174);"/></g><g><path d="M15.786,30.276L15.679,30.073L15.843,29.831C16.028,29.557 16.295,29.274 16.544,29.089C16.683,28.985 17.134,28.733 17.248,28.697C17.266,28.691 17.36,28.365 17.48,27.893C17.875,26.341 18.16,25.306 18.445,24.4C18.611,23.872 18.92,22.953 19.01,22.715L19.079,22.537L18.986,22.391C18.587,21.758 17.494,19.686 17.236,19.072C16.974,18.447 16.787,17.754 16.734,17.215C16.725,17.119 16.711,17.04 16.703,17.04C16.695,17.039 16.334,17.129 15.901,17.238L15.113,17.437L15.099,17.521C15.034,17.909 14.916,18.251 14.755,18.527C14.655,18.697 14.401,19.013 14.35,19.03C14.327,19.037 14.32,18.879 14.32,18.293L14.32,17.546L14.266,17.535C14.236,17.529 14.098,17.5 13.959,17.471C13.358,17.345 13.115,17.217 13.035,16.981C12.994,16.858 12.991,16.822 13.015,16.633C13.107,15.908 13.486,15.354 14.506,14.461L14.923,14.096L15.178,13.663C15.789,12.629 16.106,12.232 16.498,12.011L16.724,11.884L16.724,11.163C16.725,8.728 16.95,7.454 17.523,6.636C17.944,6.036 18.638,5.652 19.509,5.537C19.841,5.493 20.607,5.487 20.919,5.526C21.82,5.637 22.495,5.944 22.982,6.462C23.345,6.849 23.568,7.309 23.66,7.866C23.681,7.993 23.703,8.336 23.712,8.681L23.727,9.276L23.458,9.276L23.445,9.174C23.438,9.117 23.427,8.958 23.419,8.82C23.403,8.523 23.313,8.054 23.224,7.806C22.964,7.083 22.507,6.583 21.865,6.318C21.655,6.231 21.205,6.118 20.907,6.076C20.559,6.027 19.698,6.034 19.433,6.086C18.334,6.307 17.741,6.943 17.459,8.206C17.321,8.822 17.277,9.464 17.277,10.862L17.277,11.884L17.505,11.878L17.521,11.352C17.573,9.658 17.857,8.621 18.438,8.01C18.884,7.54 19.526,7.318 20.318,7.361C21.101,7.402 21.743,7.835 22.058,8.535C22.232,8.921 22.261,9.335 22.152,9.907L22.126,10.045L21.94,10.045L21.94,9.926C21.94,9.713 21.868,9.247 21.805,9.061C21.606,8.466 21.209,8.06 20.712,7.943C20.519,7.897 20.069,7.896 19.819,7.941C19.397,8.016 19.09,8.162 18.855,8.4C18.463,8.797 18.245,9.39 18.13,10.37C18.096,10.666 18.032,11.868 18.05,11.881C18.054,11.885 18.175,11.987 18.317,12.108C18.459,12.229 18.584,12.329 18.595,12.329C18.606,12.329 18.721,12.258 18.851,12.171C19.347,11.839 19.941,11.61 20.306,11.608L20.415,11.608L20.529,11.822L20.644,12.038L20.515,12.237C20.293,12.579 20.044,12.881 19.711,13.214L19.39,13.533L19.453,13.742C19.772,14.794 20.14,15.491 20.662,16.035C21.17,16.565 21.928,17.019 22.589,17.19C22.926,17.277 23.093,17.281 24.452,17.239C25.889,17.194 26.482,17.14 27.818,16.93C29.259,16.704 29.729,16.656 30.487,16.656C31.233,16.656 31.669,16.718 32.282,16.912C32.594,17.01 33.07,17.195 33.263,17.293C33.605,17.466 33.929,17.753 34.145,18.075C34.428,18.497 34.706,19.16 34.858,19.781C34.983,20.289 35.161,21.061 35.161,21.094C35.161,21.12 34.929,21.192 34.91,21.172C34.906,21.167 34.868,21.039 34.826,20.887C34.681,20.363 34.368,19.462 34.253,19.239L34.204,19.144L34.217,19.54C34.232,20.014 34.198,20.196 34.009,20.643C33.804,21.13 33.717,21.439 33.54,22.306L33.455,22.728L33.527,22.943C33.677,23.387 33.846,24.164 33.916,24.733C33.966,25.136 33.958,26.397 33.903,26.8C33.798,27.575 33.55,28.514 33.24,29.315C33.165,29.507 33.162,29.511 33.058,29.54C32.957,29.568 32.951,29.575 32.95,29.657C32.95,29.705 32.943,29.847 32.936,29.973L32.923,30.201L32.651,30.478L31.583,30.478L31.474,30.28L31.366,30.082L31.441,29.949C31.614,29.641 31.858,29.292 31.973,29.188C32.084,29.088 32.345,28.939 32.411,28.939C32.442,28.939 32.71,27.874 32.792,27.425C32.935,26.635 32.995,25.925 32.953,25.502C32.899,24.95 32.793,24.706 32.453,24.349C32.241,24.126 31.743,23.699 31.696,23.699C31.685,23.699 31.676,23.708 31.676,23.72C31.676,23.732 31.534,24.048 31.36,24.423C31.187,24.798 30.982,25.24 30.906,25.406C30.633,25.998 30.014,27.283 29.409,28.512C28.955,29.436 28.911,29.515 28.848,29.529C28.688,29.562 28.677,29.59 28.673,29.95L28.671,30.203L28.393,30.478L27.048,30.478L26.925,30.321L26.801,30.164L26.833,30.025C26.875,29.845 26.951,29.642 27.031,29.498C27.121,29.335 27.357,29.108 27.559,28.991C27.925,28.778 28.219,28.46 28.58,27.89C29.099,27.072 29.517,26.097 29.812,25.02C29.986,24.384 30.24,23.096 30.199,23.056C30.155,23.011 28.809,23.152 28.298,23.254C27.707,23.373 27.066,23.63 26.598,23.936L26.413,24.058L26.25,24.043C26.154,24.035 26.062,24.011 26.026,23.986C25.917,23.91 25.537,23.729 25.403,23.689C25.042,23.583 24.47,23.531 23.64,23.531C23.16,23.531 23.091,23.535 23.078,23.569C23.04,23.668 23.225,26.096 23.348,27.112C23.396,27.508 23.594,28.979 23.611,29.072C23.624,29.137 23.613,29.153 23.49,29.247C23.251,29.43 23.19,29.649 23.288,29.978L23.338,30.145L23.211,30.312L23.084,30.479L22.41,30.472L21.736,30.466L21.633,30.273C21.512,30.05 21.513,30.002 21.636,29.769C21.744,29.564 22.092,29.22 22.35,29.063L22.555,28.938L22.513,28.416C22.49,28.129 22.455,27.683 22.434,27.425C22.284,25.574 22.082,24.498 21.715,23.591L21.608,23.326L21.083,23.32L20.558,23.314L20.41,23.56C19.713,24.728 19.045,26.285 18.491,28.038C18.416,28.276 18.28,28.705 18.188,28.991L18.022,29.511L17.818,29.567C17.632,29.618 17.611,29.63 17.589,29.697C17.576,29.737 17.509,29.845 17.442,29.938C17.374,30.03 17.299,30.149 17.275,30.203C17.245,30.268 17.188,30.33 17.102,30.389L16.973,30.478L15.894,30.478L15.786,30.276ZM28.152,29.716C28.17,29.448 28.216,29.326 28.344,29.204C28.41,29.142 28.453,29.121 28.518,29.12L28.604,29.12L28.891,28.579C29.602,27.24 29.816,26.817 30.096,26.187C30.261,25.817 30.49,25.304 30.605,25.048C30.72,24.792 30.855,24.468 30.905,24.327C31.046,23.935 31.196,23.552 31.245,23.455L31.29,23.368L31.048,23.113C30.915,22.972 30.798,22.858 30.788,22.858C30.778,22.858 30.757,22.967 30.74,23.1C30.631,24.006 30.318,25.194 29.977,25.999C29.679,26.704 28.92,28.172 28.588,28.685C28.433,28.925 28.377,28.982 27.964,29.312C27.65,29.563 27.525,29.696 27.435,29.871L27.396,29.949L28.135,29.949L28.152,29.716ZM16.896,29.835C17.022,29.652 17.372,29.32 17.544,29.221L17.701,29.13L17.96,28.344C18.618,26.344 18.79,25.852 19.099,25.081C19.41,24.304 19.684,23.728 19.924,23.348C19.978,23.262 20.015,23.184 20.006,23.175C19.959,23.127 19.522,22.89 19.506,22.904C19.454,22.951 18.831,24.826 18.432,26.139C18.105,27.214 18.022,27.501 17.693,28.721L17.625,28.972L17.397,29.103C17.104,29.271 16.773,29.52 16.524,29.759L16.327,29.947L16.818,29.949L16.896,29.835ZM22.844,29.829C22.817,29.624 22.929,29.294 23.098,29.079C23.155,29.007 23.166,28.973 23.155,28.91C23.148,28.867 23.093,28.35 23.034,27.761C22.87,26.129 22.762,25.079 22.708,24.588C22.634,23.914 22.623,23.398 22.671,22.966C22.715,22.575 22.83,21.671 22.837,21.665C22.844,21.659 23.345,21.709 23.353,21.716C23.361,21.722 23.171,22.894 23.153,22.956C23.142,22.991 23.225,22.997 24.001,23.009C25.273,23.029 25.647,23.102 26.137,23.426C26.205,23.47 26.269,23.507 26.279,23.507C26.29,23.507 26.385,23.451 26.492,23.382C27.052,23.023 27.766,22.78 28.633,22.654C28.992,22.601 29.291,22.573 30.254,22.503L30.503,22.485L30.397,22.341C30.339,22.261 30.092,21.904 29.85,21.547C29.607,21.191 29.308,20.751 29.185,20.571L28.961,20.243L29.182,20.097C29.304,20.016 29.41,19.958 29.419,19.968C29.427,19.977 29.713,20.396 30.054,20.898C30.701,21.854 30.857,22.071 31.123,22.389C31.521,22.865 31.898,23.216 32.361,23.542C32.506,23.645 32.678,23.779 32.742,23.84C33.128,24.21 33.327,24.766 33.382,25.632C33.408,26.047 33.399,26.135 33.251,26.972C33.12,27.712 32.954,28.417 32.809,28.854L32.697,29.19L32.529,29.305C32.254,29.494 32.101,29.642 32.016,29.802L31.937,29.949L32.461,29.949L32.491,29.739C32.532,29.45 32.527,29.459 32.663,29.398C32.744,29.361 32.805,29.311 32.846,29.25C32.921,29.136 33.083,28.587 33.229,27.954C33.571,26.465 33.612,25.576 33.392,24.432C33.328,24.1 33.167,23.507 33.064,23.231C32.923,22.849 32.918,22.795 32.987,22.397C33.063,21.967 33.198,21.364 33.276,21.109C33.309,21 33.396,20.77 33.468,20.598C33.657,20.154 33.695,19.985 33.695,19.603C33.695,19.205 33.639,18.679 33.579,18.507C33.513,18.315 33.37,18.041 33.288,17.947C33.202,17.849 32.75,17.612 32.409,17.485C31.906,17.298 31.226,17.198 30.486,17.201C29.853,17.205 29.255,17.268 27.625,17.506C27.196,17.569 26.554,17.639 25.81,17.704C25.227,17.755 23.154,17.779 22.811,17.739C22.273,17.677 21.887,17.554 21.496,17.321C21.081,17.074 20.452,16.588 20.145,16.277C19.795,15.923 19.411,15.19 19.043,14.174C18.991,14.032 18.941,13.915 18.932,13.915C18.922,13.915 18.81,13.982 18.684,14.063C18.557,14.144 18.45,14.206 18.446,14.201C18.407,14.146 18.238,13.841 18.238,13.824C18.238,13.812 18.317,13.75 18.413,13.687C18.686,13.506 18.926,13.304 19.209,13.015C19.468,12.752 19.861,12.285 19.841,12.265C19.824,12.247 19.509,12.374 19.324,12.474C18.931,12.686 18.467,13.107 18.19,13.504C18.104,13.627 18.023,13.743 18.01,13.762C17.99,13.791 17.951,13.78 17.77,13.699C17.651,13.647 17.556,13.593 17.559,13.581C17.584,13.478 17.942,12.965 18.126,12.768C18.209,12.679 18.205,12.668 18.014,12.517L17.897,12.425L16.776,12.425L16.66,12.517C16.379,12.739 16.104,13.114 15.853,13.615C15.774,13.773 15.648,13.995 15.574,14.108C15.412,14.353 14.945,14.829 14.584,15.116C13.963,15.613 13.653,16.037 13.553,16.531C13.509,16.746 13.517,16.795 13.604,16.847C13.81,16.973 14.293,17.002 14.801,16.919C15.159,16.861 15.839,16.709 16.259,16.594C16.425,16.549 16.579,16.511 16.602,16.511C16.681,16.511 16.928,16.369 17.029,16.266C17.132,16.16 17.329,15.861 17.457,15.616C17.497,15.54 17.54,15.478 17.553,15.478C17.601,15.478 18.022,15.65 18.022,15.67C18.022,15.711 17.678,16.358 17.598,16.468C17.552,16.53 17.456,16.634 17.384,16.7C17.255,16.818 17.253,16.822 17.253,16.955C17.253,17.46 17.413,18.188 17.667,18.843C17.874,19.376 18.248,20.129 18.611,20.742C19.001,21.401 19.521,22.249 19.557,22.284C19.578,22.305 19.799,22.427 20.046,22.554L20.495,22.785L20.905,22.785C21.131,22.785 21.315,22.776 21.315,22.765C21.315,22.754 21.222,22.546 21.109,22.303C20.623,21.264 20.368,20.619 20.257,20.155C20.115,19.558 20.102,19.445 20.105,18.891C20.107,18.463 20.139,17.992 20.168,17.963C20.171,17.96 20.283,17.981 20.414,18.01L20.654,18.064L20.642,18.243C20.614,18.662 20.63,19.285 20.675,19.528C20.816,20.296 21.006,20.822 21.564,21.984C21.906,22.697 22.118,23.201 22.287,23.708C22.502,24.351 22.558,24.621 22.613,25.261C22.639,25.572 22.725,26.533 22.805,27.397L22.949,28.966L22.877,29.108C22.824,29.214 22.784,29.26 22.719,29.291C22.599,29.347 22.374,29.56 22.229,29.753C22.163,29.841 22.109,29.921 22.109,29.931C22.109,29.941 22.277,29.949 22.484,29.949L22.86,29.949L22.844,29.829Z" style="fill:rgb(255,239,174);"/></g><g><path d="M15.786,30.276L15.679,30.073L15.843,29.831C16.028,29.557 16.295,29.274 16.544,29.089C16.683,28.985 17.134,28.733 17.248,28.697C17.266,28.691 17.36,28.365 17.48,27.893C17.875,26.341 18.16,25.306 18.445,24.4C18.611,23.872 18.92,22.953 19.01,22.715L19.079,22.537L18.986,22.391C18.587,21.758 17.494,19.686 17.236,19.072C16.974,18.447 16.787,17.754 16.734,17.215C16.725,17.119 16.711,17.04 16.703,17.04C16.695,17.039 16.334,17.129 15.901,17.238L15.113,17.437L15.099,17.521C15.034,17.909 14.916,18.251 14.755,18.527C14.655,18.697 14.401,19.013 14.35,19.03C14.327,19.037 14.32,18.879 14.32,18.293L14.32,17.546L14.266,17.535C14.236,17.529 14.098,17.5 13.959,17.471C13.358,17.345 13.115,17.217 13.035,16.981C12.994,16.858 12.991,16.822 13.015,16.633C13.107,15.908 13.486,15.354 14.506,14.461L14.923,14.096L15.178,13.663C15.789,12.629 16.106,12.232 16.498,12.011L16.724,11.884L16.724,11.163C16.725,8.728 16.95,7.454 17.523,6.636C17.944,6.036 18.638,5.652 19.509,5.537C19.841,5.493 20.607,5.487 20.919,5.526C21.82,5.637 22.495,5.944 22.982,6.462C23.345,6.849 23.568,7.309 23.66,7.866C23.681,7.993 23.703,8.336 23.712,8.681L23.727,9.276L23.458,9.276L23.445,9.174C23.438,9.117 23.427,8.958 23.419,8.82C23.403,8.523 23.313,8.054 23.224,7.806C22.964,7.083 22.507,6.583 21.865,6.318C21.655,6.231 21.205,6.118 20.907,6.076C20.559,6.027 19.698,6.034 19.433,6.086C18.334,6.307 17.741,6.943 17.459,8.206C17.321,8.822 17.277,9.464 17.277,10.862L17.277,11.884L17.505,11.878L17.521,11.352C17.573,9.658 17.857,8.621 18.438,8.01C18.884,7.54 19.526,7.318 20.318,7.361C21.101,7.402 21.743,7.835 22.058,8.535C22.232,8.921 22.261,9.335 22.152,9.907L22.126,10.045L21.94,10.045L21.94,9.926C21.94,9.713 21.868,9.247 21.805,9.061C21.606,8.466 21.209,8.06 20.712,7.943C20.519,7.897 20.069,7.896 19.819,7.941C19.397,8.016 19.09,8.162 18.855,8.4C18.463,8.797 18.245,9.39 18.13,10.37C18.096,10.666 18.032,11.868 18.05,11.881C18.054,11.885 18.175,11.987 18.317,12.108C18.459,12.229 18.584,12.329 18.595,12.329C18.606,12.329 18.721,12.258 18.851,12.171C19.347,11.839 19.941,11.61 20.306,11.608L20.415,11.608L20.529,11.822L20.644,12.038L20.515,12.237C20.293,12.579 20.044,12.881 19.711,13.214L19.39,13.533L19.453,13.742C19.772,14.794 20.14,15.491 20.662,16.035C21.17,16.565 21.928,17.019 22.589,17.19C22.926,17.277 23.093,17.281 24.452,17.239C25.889,17.194 26.482,17.14 27.818,16.93C29.259,16.704 29.729,16.656 30.487,16.656C31.233,16.656 31.669,16.718 32.282,16.912C32.594,17.01 33.07,17.195 33.263,17.293C33.605,17.466 33.929,17.753 34.145,18.075C34.428,18.497 34.706,19.16 34.858,19.781C34.983,20.289 35.161,21.061 35.161,21.094C35.161,21.12 34.929,21.192 34.91,21.172C34.906,21.167 34.868,21.039 34.826,20.887C34.681,20.363 34.368,19.462 34.253,19.239L34.204,19.144L34.217,19.54C34.232,20.014 34.198,20.196 34.009,20.643C33.804,21.13 33.717,21.439 33.54,22.306L33.455,22.728L33.527,22.943C33.677,23.387 33.846,24.164 33.916,24.733C33.966,25.136 33.958,26.397 33.903,26.8C33.798,27.575 33.55,28.514 33.24,29.315C33.165,29.507 33.162,29.511 33.058,29.54C32.957,29.568 32.951,29.575 32.95,29.657C32.95,29.705 32.943,29.847 32.936,29.973L32.923,30.201L32.651,30.478L31.583,30.478L31.474,30.28L31.366,30.082L31.441,29.949C31.614,29.641 31.858,29.292 31.973,29.188C32.084,29.088 32.345,28.939 32.411,28.939C32.442,28.939 32.71,27.874 32.792,27.425C32.935,26.635 32.995,25.925 32.953,25.502C32.899,24.95 32.793,24.706 32.453,24.349C32.241,24.126 31.743,23.699 31.696,23.699C31.685,23.699 31.676,23.708 31.676,23.72C31.676,23.732 31.534,24.048 31.36,24.423C31.187,24.798 30.982,25.24 30.906,25.406C30.633,25.998 30.014,27.283 29.409,28.512C28.955,29.436 28.911,29.515 28.848,29.529C28.688,29.562 28.677,29.59 28.673,29.95L28.671,30.203L28.393,30.478L27.048,30.478L26.925,30.321L26.801,30.164L26.833,30.025C26.875,29.845 26.951,29.642 27.031,29.498C27.121,29.335 27.357,29.108 27.559,28.991C27.925,28.778 28.219,28.46 28.58,27.89C29.099,27.072 29.517,26.097 29.812,25.02C29.986,24.384 30.24,23.096 30.199,23.056C30.155,23.011 28.809,23.152 28.298,23.254C27.707,23.373 27.066,23.63 26.598,23.936L26.413,24.058L26.25,24.043C26.154,24.035 26.062,24.011 26.026,23.986C25.917,23.91 25.537,23.729 25.403,23.689C25.042,23.583 24.47,23.531 23.64,23.531C23.16,23.531 23.091,23.535 23.078,23.569C23.04,23.668 23.225,26.096 23.348,27.112C23.396,27.508 23.594,28.979 23.611,29.072C23.624,29.137 23.613,29.153 23.49,29.247C23.251,29.43 23.19,29.649 23.288,29.978L23.338,30.145L23.211,30.312L23.084,30.479L22.41,30.472L21.736,30.466L21.633,30.273C21.512,30.05 21.513,30.002 21.636,29.769C21.744,29.564 22.092,29.22 22.35,29.063L22.555,28.938L22.513,28.416C22.49,28.129 22.455,27.683 22.434,27.425C22.284,25.574 22.082,24.498 21.715,23.591L21.608,23.326L21.083,23.32L20.558,23.314L20.41,23.56C19.713,24.728 19.045,26.285 18.491,28.038C18.416,28.276 18.28,28.705 18.188,28.991L18.022,29.511L17.818,29.567C17.632,29.618 17.611,29.63 17.589,29.697C17.576,29.737 17.509,29.845 17.442,29.938C17.374,30.03 17.299,30.149 17.275,30.203C17.245,30.268 17.188,30.33 17.102,30.389L16.973,30.478L15.894,30.478L15.786,30.276ZM16.896,29.835C17.022,29.652 17.372,29.32 17.544,29.221L17.701,29.13L17.96,28.344C18.618,26.344 18.79,25.852 19.099,25.081C19.41,24.304 19.684,23.728 19.924,23.348C19.978,23.262 20.015,23.184 20.006,23.175C19.959,23.127 19.522,22.89 19.506,22.904C19.454,22.951 18.831,24.826 18.432,26.139C18.105,27.214 18.022,27.501 17.693,28.721L17.625,28.972L17.397,29.103C17.104,29.271 16.773,29.52 16.524,29.759L16.327,29.947L16.818,29.949L16.896,29.835ZM22.844,29.829C22.817,29.624 22.929,29.294 23.098,29.079C23.155,29.007 23.166,28.973 23.155,28.91C23.148,28.867 23.093,28.35 23.034,27.761C22.87,26.129 22.762,25.079 22.708,24.588C22.634,23.914 22.623,23.398 22.671,22.966C22.715,22.575 22.83,21.671 22.837,21.665C22.844,21.659 23.345,21.709 23.353,21.716C23.361,21.722 23.171,22.894 23.153,22.956C23.142,22.991 23.225,22.997 24.001,23.009C25.273,23.029 25.647,23.102 26.137,23.426C26.205,23.47 26.269,23.507 26.279,23.507C26.29,23.507 26.385,23.451 26.492,23.382C27.052,23.023 27.766,22.78 28.633,22.654C28.992,22.601 29.291,22.573 30.254,22.503L30.503,22.485L30.397,22.341C30.339,22.261 30.092,21.904 29.85,21.547C29.607,21.191 29.308,20.751 29.185,20.571L28.961,20.243L29.182,20.097C29.304,20.016 29.41,19.958 29.419,19.968C29.427,19.977 29.713,20.396 30.054,20.898C30.701,21.854 30.857,22.071 31.123,22.389C31.521,22.865 31.898,23.216 32.361,23.542C32.506,23.645 32.678,23.779 32.742,23.84C33.128,24.21 33.327,24.766 33.382,25.632C33.408,26.047 33.399,26.135 33.251,26.972C33.12,27.712 32.954,28.417 32.809,28.854L32.697,29.19L32.529,29.305C32.254,29.494 32.101,29.642 32.016,29.802L31.937,29.949L32.461,29.949L32.491,29.739C32.532,29.45 32.527,29.459 32.663,29.398C32.744,29.361 32.805,29.311 32.846,29.25C32.921,29.136 33.083,28.587 33.229,27.954C33.571,26.465 33.612,25.576 33.392,24.432C33.328,24.1 33.167,23.507 33.064,23.231C32.923,22.849 32.918,22.795 32.987,22.397C33.063,21.967 33.198,21.364 33.276,21.109C33.309,21 33.396,20.77 33.468,20.598C33.657,20.154 33.695,19.985 33.695,19.603C33.695,19.205 33.639,18.679 33.579,18.507C33.513,18.315 33.37,18.041 33.288,17.947C33.202,17.849 32.75,17.612 32.409,17.485C31.906,17.298 31.226,17.198 30.486,17.201C29.853,17.205 29.255,17.268 27.625,17.506C27.196,17.569 26.554,17.639 25.81,17.704C25.227,17.755 23.154,17.779 22.811,17.739C22.273,17.677 21.887,17.554 21.496,17.321C21.081,17.074 20.452,16.588 20.145,16.277C19.795,15.923 19.411,15.19 19.043,14.174C18.991,14.032 18.941,13.915 18.932,13.915C18.922,13.915 18.81,13.982 18.684,14.063C18.557,14.144 18.45,14.206 18.446,14.201C18.407,14.146 18.238,13.841 18.238,13.824C18.238,13.812 18.317,13.75 18.413,13.687C18.686,13.506 18.926,13.304 19.209,13.015C19.468,12.752 19.861,12.285 19.841,12.265C19.824,12.247 19.509,12.374 19.324,12.474C18.931,12.686 18.467,13.107 18.19,13.504C18.104,13.627 18.023,13.743 18.01,13.762C17.99,13.791 17.951,13.78 17.77,13.699C17.651,13.647 17.556,13.593 17.559,13.581C17.584,13.478 17.942,12.965 18.126,12.768C18.209,12.679 18.205,12.668 18.014,12.517L17.897,12.425L16.776,12.425L16.66,12.517C16.379,12.739 16.104,13.114 15.853,13.615C15.774,13.773 15.648,13.995 15.574,14.108C15.412,14.353 14.945,14.829 14.584,15.116C13.963,15.613 13.653,16.037 13.553,16.531C13.509,16.746 13.517,16.795 13.604,16.847C13.81,16.973 14.293,17.002 14.801,16.919C15.159,16.861 15.839,16.709 16.259,16.594C16.425,16.549 16.579,16.511 16.602,16.511C16.681,16.511 16.928,16.369 17.029,16.266C17.132,16.16 17.329,15.861 17.457,15.616C17.497,15.54 17.54,15.478 17.553,15.478C17.601,15.478 18.022,15.65 18.022,15.67C18.022,15.711 17.678,16.358 17.598,16.468C17.552,16.53 17.456,16.634 17.384,16.7C17.255,16.818 17.253,16.822 17.253,16.955C17.253,17.46 17.413,18.188 17.667,18.843C17.874,19.376 18.248,20.129 18.611,20.742C19.001,21.401 19.521,22.249 19.557,22.284C19.578,22.305 19.799,22.427 20.046,22.554L20.495,22.785L20.905,22.785C21.131,22.785 21.315,22.776 21.315,22.765C21.315,22.754 21.222,22.546 21.109,22.303C20.623,21.264 20.368,20.619 20.257,20.155C20.115,19.558 20.102,19.445 20.105,18.891C20.107,18.463 20.139,17.992 20.168,17.963C20.171,17.96 20.283,17.981 20.414,18.01L20.654,18.064L20.642,18.243C20.614,18.662 20.63,19.285 20.675,19.528C20.816,20.296 21.006,20.822 21.564,21.984C21.906,22.697 22.118,23.201 22.287,23.708C22.502,24.351 22.558,24.621 22.613,25.261C22.639,25.572 22.725,26.533 22.805,27.397L22.949,28.966L22.877,29.108C22.824,29.214 22.784,29.26 22.719,29.291C22.599,29.347 22.374,29.56 22.229,29.753C22.163,29.841 22.109,29.921 22.109,29.931C22.109,29.941 22.277,29.949 22.484,29.949L22.86,29.949L22.844,29.829ZM28.152,29.716C28.17,29.448 28.216,29.326 28.344,29.204C28.41,29.142 28.453,29.121 28.518,29.12L28.604,29.12L28.891,28.579C29.602,27.24 29.816,26.817 30.096,26.187C30.261,25.817 30.49,25.304 30.605,25.048C30.72,24.792 30.855,24.468 30.905,24.327C31.046,23.935 31.196,23.552 31.245,23.455L31.29,23.368L31.048,23.113C30.915,22.972 30.798,22.858 30.788,22.858C30.778,22.858 30.757,22.967 30.74,23.1C30.631,24.006 30.318,25.194 29.977,25.999C29.679,26.704 28.92,28.172 28.588,28.685C28.433,28.925 28.377,28.982 27.964,29.312C27.65,29.563 27.525,29.696 27.435,29.871L27.396,29.949L28.135,29.949L28.152,29.716ZM16.185,14.652C16.131,14.599 16.123,14.57 16.123,14.437C16.123,14.314 16.133,14.275 16.171,14.24C16.212,14.202 16.232,14.2 16.309,14.223C16.413,14.254 16.688,14.466 16.688,14.515C16.688,14.555 16.441,14.683 16.329,14.701C16.262,14.712 16.235,14.703 16.185,14.652Z" style="fill-opacity:0;fill-rule:nonzero;"/></g></g><g><path d="M14.523,33L15.632,33L17.923,38.95L16.807,38.95L16.248,37.375L13.873,37.375L13.315,38.95L12.24,38.95L14.523,33ZM14.157,36.583L15.973,36.583L15.082,34.025L15.057,34.025L14.157,36.583Z" style="fill:rgb(255,239,174);fill-rule:nonzero;"/><path d="M22.865,37.033C22.865,37.294 22.843,37.547 22.798,37.792C22.754,38.036 22.664,38.256 22.528,38.45C22.391,38.644 22.194,38.8 21.936,38.917C21.678,39.033 21.335,39.092 20.907,39.092C20.59,39.092 20.321,39.043 20.098,38.946C19.876,38.849 19.693,38.715 19.548,38.546C19.404,38.376 19.298,38.175 19.232,37.942C19.165,37.708 19.132,37.456 19.132,37.183L19.132,36.867L20.173,36.867L20.173,37.175C20.173,37.514 20.23,37.776 20.344,37.963C20.458,38.149 20.673,38.242 20.99,38.242C21.157,38.242 21.294,38.217 21.403,38.167C21.511,38.117 21.597,38.043 21.661,37.946C21.725,37.849 21.768,37.728 21.79,37.583C21.812,37.439 21.823,37.275 21.823,37.092L21.823,33L22.865,33L22.865,37.033Z" style="fill:rgb(255,239,174);fill-rule:nonzero;"/><path d="M27.957,34.592C27.935,34.353 27.85,34.16 27.703,34.013C27.555,33.865 27.357,33.792 27.107,33.792C26.935,33.792 26.786,33.824 26.661,33.888C26.536,33.951 26.43,34.036 26.344,34.142C26.258,34.247 26.189,34.368 26.136,34.504C26.083,34.64 26.04,34.783 26.007,34.933C25.973,35.083 25.95,35.232 25.936,35.379C25.922,35.526 25.91,35.664 25.898,35.792L25.915,35.808C26.043,35.575 26.219,35.401 26.444,35.288C26.669,35.174 26.912,35.117 27.173,35.117C27.462,35.117 27.721,35.167 27.948,35.267C28.176,35.367 28.369,35.504 28.528,35.679C28.686,35.854 28.807,36.061 28.89,36.3C28.973,36.539 29.015,36.797 29.015,37.075C29.015,37.358 28.969,37.621 28.878,37.863C28.786,38.104 28.654,38.315 28.482,38.496C28.31,38.676 28.104,38.817 27.865,38.917C27.626,39.017 27.362,39.067 27.073,39.067C26.646,39.067 26.294,38.988 26.019,38.829C25.744,38.671 25.528,38.454 25.369,38.179C25.211,37.904 25.101,37.582 25.04,37.213C24.979,36.843 24.948,36.444 24.948,36.017C24.948,35.667 24.986,35.314 25.061,34.958C25.136,34.603 25.26,34.279 25.432,33.988C25.604,33.696 25.83,33.458 26.111,33.275C26.391,33.092 26.737,33 27.148,33C27.382,33 27.601,33.039 27.807,33.117C28.012,33.194 28.194,33.303 28.353,33.442C28.511,33.581 28.64,33.747 28.74,33.942C28.84,34.136 28.896,34.353 28.907,34.592L27.957,34.592ZM27.04,38.275C27.212,38.275 27.362,38.24 27.49,38.171C27.618,38.101 27.725,38.011 27.811,37.9C27.897,37.789 27.961,37.66 28.003,37.513C28.044,37.365 28.065,37.214 28.065,37.058C28.065,36.903 28.044,36.753 28.003,36.608C27.961,36.464 27.897,36.338 27.811,36.229C27.725,36.121 27.618,36.033 27.49,35.967C27.362,35.9 27.212,35.867 27.04,35.867C26.868,35.867 26.716,35.899 26.586,35.963C26.455,36.026 26.346,36.113 26.257,36.221C26.168,36.329 26.101,36.456 26.057,36.6C26.012,36.744 25.99,36.897 25.99,37.058C25.99,37.219 26.012,37.372 26.057,37.517C26.101,37.661 26.168,37.79 26.257,37.904C26.346,38.018 26.455,38.108 26.586,38.175C26.716,38.242 26.868,38.275 27.04,38.275Z" style="fill:rgb(255,239,174);fill-rule:nonzero;"/><path d="M30.582,33L31.823,33L33.173,35.1L34.582,33L35.748,33L33.782,35.867L35.89,38.95L34.623,38.95L33.14,36.675L31.632,38.95L30.44,38.95L32.548,35.867L30.582,33Z" style="fill:rgb(255,239,174);fill-rule:nonzero;"/></g></svg>